# xmcd
#
# Track frame offsets:
#	150
#	21905
#	49472
#	77072
#	98855
#	110872
#	128000
#	149395
#	166927
#
# Disc length: 2658 seconds
#
# Revision: 0
# Processed by: cddbd v1.4PL0 Copyright (c) Steve Scherf et al.
# Submitted via: EasyCDDAExtractor 4.6.9.1
#
DISCID=7b0a6009
DTITLE=Juke Jumpers - live
DYEAR=1900
DGENRE=blues
TTITLE0=hot dog
TTITLE1=never make your move to soon
TTITLE2=merry christmas baby
TTITLE3=rocket in my pocket
TTITLE4=okie dokie stomp
TTITLE5=lip´s n fingers BarBq
TTITLE6=georgia slop
TTITLE7=somebody´s been rockin my boat
TTITLE8=bluebird boogie
EXTD=
EXTT0=
EXTT1=
EXTT2=
EXTT3=
EXTT4=
EXTT5=
EXTT6=
EXTT7=
EXTT8=
PLAYORDER=
